<?xml version="1.0" encoding="iso-8859-1"?>
<!-- Generator: Adobe Illustrator 19.0.0, SVG Export Plug-In . SVG Version: 6.00 Build 0)  -->
<svg version="1.1" id="Layer_1" xmlns="http://www.w3.org/2000/svg" xmlns:xlink="http://www.w3.org/1999/xlink" x="0px" y="0px"
	 viewBox="0 0 463.3 463.3" style="enable-background:new 0 0 463.3 463.3;" xml:space="preserve">
<g>
	<path style="fill:#CCCCCC;" d="M446.1,80.31H26.5c-9.5,0-17.2,7.7-17.2,17.2v26.15v254.13c0,9.5,7.7,17.2,17.2,17.2h419.6
		c9.5,0,17.2-7.7,17.2-17.2V123.66v-26.15C463.299,88.01,455.6,80.31,446.1,80.31z"/>
	<path style="fill:#F2F2F2;" d="M454,111.661v254.13c0,9.5-7.7,17.2-17.2,17.2H17.2c-9.5,0-17.2-7.7-17.2-17.2v-254.13H454z"/>
	<path style="fill:#88C5FC;" d="M454,85.511v26.15H0v-26.15c0-9.5,7.7-17.2,17.2-17.2h419.6C446.3,68.311,454,76.011,454,85.511z"/>
	<path style="fill:#F2F2F2;" d="M259.997,97.486h-188c-4.142,0-7.5-3.358-7.5-7.5s3.358-7.5,7.5-7.5h188c4.142,0,7.5,3.358,7.5,7.5
		S264.139,97.486,259.997,97.486z"/>
	<path style="fill:#4D4D4D;" d="M47,97.481c-1.98,0-3.91-0.8-5.31-2.19c-1.39-1.4-2.19-3.33-2.19-5.31c0-1.97,0.8-3.9,2.19-5.3
		c1.4-1.39,3.33-2.19,5.31-2.19c1.97,0,3.9,0.8,5.3,2.19c1.4,1.4,2.2,3.33,2.2,5.3c0,1.98-0.8,3.91-2.2,5.31
		C50.9,96.681,48.97,97.481,47,97.481z"/>
	<path style="fill:#F9A18A;" d="M23,97.481c-1.98,0-3.91-0.8-5.31-2.19c-1.39-1.4-2.19-3.33-2.19-5.31c0-1.97,0.8-3.9,2.19-5.3
		c1.4-1.39,3.33-2.19,5.31-2.19c1.97,0,3.9,0.8,5.3,2.19c1.4,1.4,2.2,3.33,2.2,5.3c0,1.98-0.8,3.91-2.2,5.31
		C26.9,96.681,24.97,97.481,23,97.481z"/>
	<rect x="23" y="217.911" style="fill:#F9A18A;" width="98.99" height="142.08"/>
	<polygon style="fill:#B3B3B3;" points="431,138.87 375.92,190.881 23,190.881 23,138.87 	"/>
	<polygon style="fill:#AFDAF9;" points="248.84,217.911 248.84,310.891 196.84,359.99 149.84,359.99 149.84,217.911 	"/>
	<polygon style="fill:#DB7D6A;" points="121.99,231.04 81.64,288.951 121.99,346.86 121.99,359.99 112.86,359.99 72.5,302.07 
		32.14,359.99 23,359.99 23,346.87 63.35,288.951 23,231.031 23,217.911 32.14,217.911 72.5,275.831 112.86,217.911 121.99,217.911 
			"/>
	<g>
		<path style="opacity:0.23;fill:#F2F2F2;enable-background:new    ;" d="M454,85.511v280.28c0,9.5-7.7,17.2-17.2,17.2H194.887
			l163.75-314.68H436.8C446.3,68.311,454,76.011,454,85.511z"/>
		<path style="opacity:0.23;fill:#F2F2F2;enable-background:new    ;" d="M119.68,68.311l-22.56,43.35L85.29,134.4l-25.96,49.88
			l-12.39,23.82l-23.94,46L0,298.3V85.511c0-9.5,7.7-17.2,17.2-17.2H119.68z"/>
	</g>
	<path style="fill:#CCCCCC;" d="M438.5,150.87v221.12H256.34h-52l52-49.1l127.08-120.01L438.5,150.87z M395.5,328.99v-78.37
		l-83,78.37H395.5z"/>
	<path style="fill:#F9DD53;" d="M375.92,190.881l-20.97,19.8l-49.54,46.79l-56.57,53.42l-52,49.1H431V138.87L375.92,190.881z
		 M305,316.99l83-78.37v78.37H305z"/>
</g>
<g>
</g>
<g>
</g>
<g>
</g>
<g>
</g>
<g>
</g>
<g>
</g>
<g>
</g>
<g>
</g>
<g>
</g>
<g>
</g>
<g>
</g>
<g>
</g>
<g>
</g>
<g>
</g>
<g>
</g>
</svg>
