<svg xmlns="http://www.w3.org/2000/svg" xmlns:xlink="http://www.w3.org/1999/xlink" xmlns:fi="http://pattern.flaticon.com/" x="0" y="0" width="4000" height="3000" viewBox="0 0 4000 3000"><rect x="0px" y="0px" width="100%" height="100%" opacity="1" fill="#ffffff"/><defs><g transform="matrix(1.034482717514038 0 0 1.034482717514038 215 205)" id="L1_7"><path d="M58,40.5H8v-26h50V40.5z M10,38.5h46v-22H10V38.5z" fill="#f5685d"/><path d="M9,47.5c-0.553,0-1-0.447-1-1v-7c0-0.553,0.447-1,1-1s1,0.447,1,1v7C10,47.053,9.553,47.5,9,47.5z" fill="#f5685d"/><circle cx="19" cy="51" r="4" fill="#556080"/><circle cx="43" cy="51" r="4" fill="#556080"/><path d="M52,47.5H9c-0.553,0-1-0.447-1-1s0.447-1,1-1h43c0.553,0,1,0.447,1,1S52.553,47.5,52,47.5z" fill="#f5685d"/><circle cx="33" cy="15" r="13" fill="#24ae5f"/><path d="M31.999,21.5c-0.226,0-0.452-0.076-0.64-0.231l-6-5c-0.424-0.354-0.481-0.984-0.128-1.409   c0.354-0.424,0.982-0.48,1.409-0.128l6,5c0.424,0.354,0.481,0.984,0.128,1.409C32.57,21.378,32.286,21.5,31.999,21.5z" fill="#ffffff"/><path d="M32,21.5c-0.236,0-0.474-0.083-0.664-0.253c-0.413-0.366-0.45-0.999-0.083-1.411l8-9   c0.366-0.414,0.998-0.451,1.411-0.083c0.413,0.366,0.45,0.999,0.083,1.411l-8,9C32.55,21.387,32.275,21.5,32,21.5z" fill="#ffffff"/><path d="M9,7.5H4c-0.553,0-1-0.447-1-1s0.447-1,1-1h5c0.553,0,1,0.447,1,1S9.553,7.5,9,7.5z" fill="#f5685d"/><path d="M9,16.5c-0.553,0-1-0.447-1-1v-9c0-0.553,0.447-1,1-1s1,0.447,1,1v9C10,16.053,9.553,16.5,9,16.5z" fill="#f5685d"/><circle cx="3" cy="6" r="3" fill="#d97f73"/></g><g transform="matrix(0.1171875 0 0 0.1171875 98 54)" id="L1_11"><path d="M494.345,463.448H17.655V48.552c0-4.875,3.953-8.828,8.828-8.828h459.034  c4.875,0,8.828,3.953,8.828,8.828V463.448z" fill="#b9785f"/><path d="M494.345,180.205c-1.809,0.45-3.67,0.76-5.618,0.76c-12.853,0-23.273-10.42-23.273-23.273  c0,12.852-10.42,23.273-23.273,23.273c-12.853,0-23.273-10.42-23.273-23.273c0,12.852-10.419,23.273-23.273,23.273  c-12.853,0-23.273-10.42-23.273-23.273c0,12.852-10.42,23.273-23.273,23.273s-23.273-10.42-23.273-23.273  c0,12.852-10.42,23.273-23.273,23.273c-12.853,0-23.273-10.42-23.273-23.273c0,12.852-10.419,23.273-23.273,23.273  s-23.273-10.42-23.273-23.273c0,12.852-10.42,23.273-23.273,23.273c-12.853,0-23.273-10.42-23.273-23.273  c0,12.852-10.419,23.273-23.273,23.273c-12.853,0-23.273-10.42-23.273-23.273c0,12.852-10.42,23.273-23.273,23.273  c-12.853,0-23.273-10.42-23.273-23.273c0,12.852-10.42,23.273-23.273,23.273s-23.273-10.42-23.273-23.273  c0,12.852-10.419,23.273-23.273,23.273c-1.948,0-3.809-0.31-5.618-0.76v17.848c1.854,0.257,3.694,0.568,5.618,0.568  c8.639,0,16.661-2.69,23.273-7.277c6.614,4.586,14.635,7.276,23.275,7.276c8.639,0,16.661-2.69,23.273-7.277  c6.612,4.587,14.634,7.277,23.273,7.277s16.661-2.69,23.273-7.277c6.612,4.587,14.634,7.277,23.273,7.277  c8.639,0,16.661-2.69,23.273-7.277c6.612,4.587,14.634,7.277,23.273,7.277c8.639,0,16.661-2.69,23.273-7.277  c6.611,4.587,14.633,7.277,23.272,7.277s16.661-2.69,23.273-7.277c6.612,4.587,14.634,7.277,23.273,7.277  c8.639,0,16.661-2.69,23.273-7.277c6.612,4.587,14.634,7.277,23.273,7.277c8.639,0,16.661-2.69,23.273-7.277  c6.612,4.587,14.634,7.277,23.273,7.277s16.661-2.69,23.273-7.277c6.612,4.587,14.634,7.277,23.273,7.277  c8.64,0,16.661-2.69,23.273-7.277c6.612,4.587,14.634,7.277,23.273,7.277c1.923,0,3.764-0.31,5.618-0.568v-17.847H494.345z" fill="#aa6455"/><rect x="61px" y="216px" width="247px" height="158px" fill="#b4e1fa"/><path d="M264.828,366.345 247.172,366.345 141.241,225.103 158.897,225.103z" fill="#ffffff"/><g><path d="M209.454,180.966L209.454,180.966c-12.853,0-23.273-10.42-23.273-23.273v-20.865h46.546v20.865   C232.727,170.546,222.307,180.966,209.454,180.966z" fill="#d2555a"/><path d="M302.546,180.966L302.546,180.966c-12.853,0-23.273-10.42-23.273-23.273v-20.865h46.546v20.865   C325.818,170.546,315.399,180.966,302.546,180.966z" fill="#d2555a"/><path d="M116.364,180.966L116.364,180.966c-12.853,0-23.273-10.42-23.273-23.273v-20.865h46.546v20.865   C139.636,170.546,129.217,180.966,116.364,180.966z" fill="#d2555a"/><path d="M23.273,180.966L23.273,180.966C10.42,180.966,0,170.546,0,157.693v-20.865h46.546v20.865   C46.546,170.546,36.126,180.966,23.273,180.966z" fill="#d2555a"/><path d="M395.636,180.966L395.636,180.966c-12.853,0-23.273-10.42-23.273-23.273v-20.865h46.546v20.865   C418.909,170.546,408.49,180.966,395.636,180.966z" fill="#d2555a"/></g><g><path d="M162.909,180.966L162.909,180.966c-12.853,0-23.273-10.42-23.273-23.273v-20.865h46.546v20.865   C186.182,170.546,175.763,180.966,162.909,180.966z" fill="#c7cfe2"/><path d="M349.091,180.966L349.091,180.966c-12.853,0-23.273-10.42-23.273-23.273v-20.865h46.546v20.865   C372.363,170.546,361.944,180.966,349.091,180.966z" fill="#c7cfe2"/></g><path d="M488.727,180.966L488.727,180.966c-12.853,0-23.273-10.42-23.273-23.273v-20.865H512v20.865  C512,170.546,501.58,180.966,488.727,180.966z" fill="#d2555a"/><g><path d="M442.182,180.966L442.182,180.966c-12.853,0-23.273-10.42-23.273-23.273v-20.865h46.546v20.865   C465.454,170.546,455.034,180.966,442.182,180.966z" fill="#c7cfe2"/><path d="M69.818,180.966L69.818,180.966c-12.853,0-23.273-10.42-23.273-23.273v-20.865h46.546v20.865   C93.091,170.546,82.671,180.966,69.818,180.966z" fill="#c7cfe2"/><path d="M256,180.966L256,180.966c-12.853,0-23.273-10.42-23.273-23.273v-20.865h46.546v20.865   C279.273,170.546,268.853,180.966,256,180.966z" fill="#c7cfe2"/></g><g><path d="M232.727,136.828 186.182,136.828 190.997,66.207 234.333,66.207z" fill="#ff6464"/><path d="M325.818,136.828 279.273,136.828 277.667,66.207 321.003,66.207z" fill="#ff6464"/><path d="M139.636,136.828 93.091,136.828 104.326,66.207 147.661,66.207z" fill="#ff6464"/><path d="M46.546,136.828 0,136.828 17.655,66.207 60.991,66.207z" fill="#ff6464"/><path d="M418.909,136.828 372.363,136.828 364.339,66.207 407.673,66.207z" fill="#ff6464"/></g><g><path d="M186.182,136.828 139.636,136.828 147.661,66.207 190.997,66.207z" fill="#eff2fa"/><path d="M372.363,136.828 325.818,136.828 321.003,66.207 364.339,66.207z" fill="#eff2fa"/></g><path d="M512,136.828 465.454,136.828 451.009,66.207 494.345,66.207z" fill="#ff6464"/><g><path d="M465.454,136.828 418.909,136.828 407.673,66.207 451.009,66.207z" fill="#eff2fa"/><path d="M93.091,136.828 46.546,136.828 60.991,66.207 104.326,66.207z" fill="#eff2fa"/><path d="M279.273,136.828 232.727,136.828 234.333,66.207 277.667,66.207z" fill="#eff2fa"/></g><path d="M503.172,472.276H8.828c-4.875,0-8.828-3.953-8.828-8.828l0,0c0-4.875,3.953-8.828,8.828-8.828  h494.345c4.875,0,8.828,3.953,8.828,8.828l0,0C512,468.323,508.047,472.276,503.172,472.276z" fill="#c7cfe2"/><rect x="17px" y="436px" width="476px" height="17px" fill="#afb9d2" opacity="0.97"/><rect x="17px" y="401px" width="476px" height="35px" fill="#aa6455"/><g><path d="M300.138,225.103v141.241H70.621V225.103H300.138 M308.966,207.448H61.793   c-4.875,0-8.828,3.953-8.828,8.828v158.897c0,4.875,3.953,8.828,8.828,8.828h247.172c4.875,0,8.828-3.953,8.828-8.828V216.276   C317.793,211.401,313.841,207.448,308.966,207.448L308.966,207.448z" fill="#5b5d6e"/><path d="M450.207,207.448h-88.276c-4.875,0-8.828,3.953-8.828,8.828v220.69h105.931v-220.69   C459.034,211.401,455.082,207.448,450.207,207.448z" fill="#5b5d6e"/></g><rect x="370px" y="225px" width="70px" height="141px" fill="#b4e1fa"/><rect x="70px" y="225px" width="229px" height="17px" fill="#a0d2f0"/><rect x="370px" y="225px" width="70px" height="17px" id="SVGCleanerId_0" fill="#a0d2f0"/><path d="M229.517,366.345 194.207,366.345 88.276,225.103 123.586,225.103z" fill="#a0d2f0"/><path d="M172.138,242.759 158.897,225.103 141.241,225.103 154.483,242.759z" fill="#b4e1fa"/><path d="M441.379,295.724 388.414,225.103 370.759,225.103 441.379,319.265z" fill="#ffffff"/><path d="M401.655,242.759 388.414,225.103 370.759,225.103 384,242.759z" fill="#b4e1fa"/><rect x="370px" y="225px" width="70px" height="17px" id="SVGCleanerId_0_1_" fill="#a0d2f0"/><path d="M441.379,295.724 388.414,225.103 370.759,225.103 441.379,319.265z" fill="#ffffff"/><path d="M370.759,248.644 370.759,295.724 423.724,366.345 441.379,366.345 441.379,342.804z" fill="#a0d2f0"/></g></defs><g fi:class="KUsePattern" opacity="0.68"><pattern id="pattern_L1_7" width="350" height="350" patternUnits="userSpaceOnUse"><use xlink:href="#L1_7" x="-350" y="-350"/><use xlink:href="#L1_7" x="0" y="-350"/><use xlink:href="#L1_7" x="350" y="-350"/><use xlink:href="#L1_7" x="-350" y="0"/><use xlink:href="#L1_7" x="0" y="0"/><use xlink:href="#L1_7" x="350" y="0"/><use xlink:href="#L1_7" x="-350" y="350"/><use xlink:href="#L1_7" x="0" y="350"/><use xlink:href="#L1_7" x="350" y="350"/></pattern><rect x="0" y="0" width="100%" height="100%" fill="url(#pattern_L1_7)"/></g><g fi:class="KUsePattern" opacity="1"><pattern id="pattern_L1_11" width="350" height="350" patternUnits="userSpaceOnUse"><use xlink:href="#L1_11" x="-350" y="-350"/><use xlink:href="#L1_11" x="0" y="-350"/><use xlink:href="#L1_11" x="350" y="-350"/><use xlink:href="#L1_11" x="-350" y="0"/><use xlink:href="#L1_11" x="0" y="0"/><use xlink:href="#L1_11" x="350" y="0"/><use xlink:href="#L1_11" x="-350" y="350"/><use xlink:href="#L1_11" x="0" y="350"/><use xlink:href="#L1_11" x="350" y="350"/></pattern><rect x="0" y="0" width="100%" height="100%" fill="url(#pattern_L1_11)"/></g></svg>