<?xml version="1.0" encoding="iso-8859-1"?>
<!-- Generator: Adobe Illustrator 19.0.0, SVG Export Plug-In . SVG Version: 6.00 Build 0)  -->
<svg version="1.1" id="Layer_1" xmlns="http://www.w3.org/2000/svg" xmlns:xlink="http://www.w3.org/1999/xlink" x="0px" y="0px"
	 viewBox="0 0 463.3 463.3" style="enable-background:new 0 0 463.3 463.3;" xml:space="preserve">
<g>
	<path style="fill:#CCCCCC;" d="M446.1,80.31H26.5c-9.5,0-17.2,7.7-17.2,17.2v26.15v254.13c0,9.5,7.7,17.2,17.2,17.2h419.6
		c9.5,0,17.2-7.7,17.2-17.2V123.66V97.51C463.3,88.009,455.6,80.31,446.1,80.31z"/>
	<polygon style="fill:#E6E6E6;" points="167,111.89 167,166.11 0,166.11 0,111.66 167,111.66 	"/>
	<rect y="166.11" style="fill:#E6E6E6;" width="167" height="54.22"/>
	<rect y="220.33" style="fill:#E6E6E6;" width="167" height="54.22"/>
	<rect y="274.55" style="fill:#E6E6E6;" width="167" height="54.22"/>
	<path style="fill:#E6E6E6;" d="M167,328.77v54.22H17.2c-9.5,0-17.2-7.7-17.2-17.2v-37.02H167z"/>
	<path style="fill:#F2F2F2;" d="M454,111.66v254.13c0,9.5-7.7,17.2-17.2,17.2H167v-54.22v-54.22v-54.22v-54.22v-54.22v-0.23
		C167,111.66,454,111.66,454,111.66z"/>
	<path style="fill:#88C5FC;" d="M454,85.51v26.15H167H0V85.51c0-9.5,7.7-17.2,17.2-17.2h419.6C446.3,68.31,454,76.01,454,85.51z"/>
	<polygon style="fill:#B3B3B3;" points="163.5,111.89 163.5,162.61 0,162.61 0,169.61 163.5,169.61 163.5,216.83 0,216.83 0,223.83 
		163.5,223.83 163.5,271.05 0,271.05 0,278.05 163.5,278.05 163.5,325.27 0,325.27 0,332.27 163.5,332.27 163.5,382.99 
		170.5,382.99 170.5,111.89 	"/>
	<path style="fill:#F2F2F2;" d="M259.997,97.485h-188c-4.142,0-7.5-3.358-7.5-7.5s3.358-7.5,7.5-7.5h188c4.142,0,7.5,3.358,7.5,7.5
		S264.139,97.485,259.997,97.485z"/>
	<path style="fill:#666666;" d="M47,97.49c-1.98,0-3.91-0.81-5.31-2.2c-1.39-1.4-2.19-3.33-2.19-5.31c0-1.97,0.8-3.9,2.19-5.3
		c1.4-1.39,3.33-2.2,5.31-2.2c1.97,0,3.9,0.81,5.3,2.2c1.4,1.4,2.2,3.33,2.2,5.3c0,1.98-0.8,3.91-2.2,5.31
		C50.9,96.68,48.97,97.49,47,97.49z"/>
	<path style="fill:#F9A18A;" d="M23,97.48c-1.98,0-3.91-0.8-5.31-2.19c-1.39-1.4-2.19-3.33-2.19-5.31c0-1.97,0.8-3.9,2.19-5.3
		c1.4-1.4,3.33-2.2,5.31-2.2c1.97,0,3.9,0.8,5.3,2.2s2.2,3.33,2.2,5.3c0,1.98-0.8,3.91-2.2,5.31C26.9,96.68,24.97,97.48,23,97.48z"
		/>
	<rect x="28.997" y="131.498" style="fill:#666666;" width="79.5" height="15"/>
	<path style="fill:#F9A18A;" d="M131,146.5c-1.98,0-3.91-0.8-5.31-2.2c-1.39-1.39-2.19-3.33-2.19-5.3c0-1.98,0.8-3.91,2.19-5.31
		c1.4-1.39,3.33-2.19,5.31-2.19c1.97,0,3.9,0.8,5.3,2.19c1.4,1.4,2.2,3.34,2.2,5.31s-0.8,3.9-2.2,5.3S132.97,146.5,131,146.5z"/>
	<path style="fill:#F9A18A;" d="M131,363.38c-1.98,0-3.91-0.8-5.31-2.2c-1.39-1.4-2.19-3.33-2.19-5.3c0-1.98,0.8-3.91,2.19-5.3
		c1.4-1.4,3.33-2.2,5.31-2.2c1.97,0,3.9,0.8,5.3,2.2c1.4,1.39,2.2,3.32,2.2,5.3c0,1.97-0.8,3.9-2.2,5.3S132.97,363.38,131,363.38z"
		/>
	<path style="fill:#F9A18A;" d="M131,309.16c-1.98,0-3.91-0.8-5.31-2.2c-1.39-1.39-2.19-3.33-2.19-5.3c0-1.98,0.8-3.91,2.19-5.3
		c1.4-1.4,3.33-2.2,5.31-2.2c1.97,0,3.9,0.8,5.3,2.2c1.4,1.39,2.2,3.32,2.2,5.3c0,1.97-0.8,3.9-2.2,5.3
		C134.9,308.36,132.97,309.16,131,309.16z"/>
	<path style="fill:#F9A18A;" d="M131,254.94c-1.98,0-3.91-0.8-5.31-2.2c-1.39-1.39-2.19-3.33-2.19-5.3c0-1.98,0.8-3.91,2.19-5.31
		c1.4-1.39,3.33-2.19,5.31-2.19c1.97,0,3.9,0.8,5.3,2.19c1.4,1.4,2.2,3.34,2.2,5.31s-0.8,3.9-2.2,5.3S132.97,254.94,131,254.94z"/>
	<path style="fill:#F9A18A;" d="M131,200.72c-1.98,0-3.91-0.8-5.31-2.2c-1.39-1.39-2.19-3.33-2.19-5.3c0-1.98,0.8-3.91,2.19-5.31
		c1.4-1.39,3.33-2.19,5.31-2.19c1.97,0,3.9,0.8,5.3,2.19c1.4,1.4,2.2,3.34,2.2,5.31s-0.8,3.9-2.2,5.3
		C134.9,199.92,132.97,200.72,131,200.72z"/>
	<rect x="28.997" y="348.378" style="fill:#666666;" width="79.5" height="15"/>
	<rect x="28.997" y="294.158" style="fill:#666666;" width="79.5" height="15"/>
	<rect x="28.997" y="239.938" style="fill:#666666;" width="79.5" height="15"/>
	<rect x="28.997" y="185.718" style="fill:#666666;" width="79.5" height="15"/>
	<polygon style="fill:#666666;" points="199.612,294.814 189.005,284.208 225.775,247.438 189.005,210.669 199.612,200.062 
		246.988,247.438 	"/>
	<g>
		<path style="opacity:0.23;fill:#F2F2F2;enable-background:new    ;" d="M454,85.51v280.28c0,9.5-7.7,17.2-17.2,17.2H194.887
			l163.75-314.68H436.8C446.3,68.31,454,76.01,454,85.51z"/>
		<path style="opacity:0.23;fill:#F2F2F2;enable-background:new    ;" d="M119.68,68.31l-22.56,43.35L85.29,134.4l-25.96,49.88
			L46.94,208.1L23,254.1L0,298.3V85.51c0-9.5,7.7-17.2,17.2-17.2H119.68z"/>
	</g>
</g>
<g>
</g>
<g>
</g>
<g>
</g>
<g>
</g>
<g>
</g>
<g>
</g>
<g>
</g>
<g>
</g>
<g>
</g>
<g>
</g>
<g>
</g>
<g>
</g>
<g>
</g>
<g>
</g>
<g>
</g>
</svg>
